<?xml version="1.0" encoding="utf-8"?>
<svg
	width="64"
	height="64"
	viewBox="0 0 64 64"
	xmlns="http://www.w3.org/2000/svg"
>
	<ellipse
		style="fill: rgb(35, 39, 46); stroke: rgb(35, 39, 46)"
		cx="31.944"
		cy="31.944"
		rx="28.265"
		ry="28.377"
	/>
	<g
		fill="#0dccd1"
		transform="matrix(0.979585, 0, 0, 1.018568, 2.940238, 1.635352)"
	>
		<path
			d="M35.3 45.7c.6 3.7-.5 8.7-2.6 9.2s-4.5-3.8-5.1-7.5c-.6-3.7.9-5.6 3.1-6c2.1-.5 4.1.6 4.6 4.3"
			style="fill: rgb(179, 147, 0)"
		/>
		<path
			d="M54.1 11.3c-3.8 0-6.8-4.3-7.3-2.3c-.5 2.3 3.5 6.7 6 6.7c0 0-8.6 6.2-46.7 6.2c-3.5 0-3.9 4.4-3.9 4.4c11 10.5 27.7 30.7 44.5 18.1c7.9-6 9.7-24.9 9.8-27.7c4.6-1.6 5.6-4.2 5.6-7.6c-.1-3.4-2.4 2.2-8 2.2"
			style="fill: rgb(216, 185, 43)"
		/>
	</g>
	<path
		d="M 5.095 28.526 C 5.095 28.526 4.703 31.887 5.095 34.637 C 6.369 42.684 12.442 53.379 29.487 53.379 C 40.067 53.379 42.222 51.953 46.924 48.388 C 47.609 47.878 48.197 47.369 48.687 46.86 C 33.797 51.036 22.532 39.322 22.532 30.053 C 22.532 28.424 10.973 27.914 5.095 28.526"
		style="fill: rgb(255, 237, 165)"
	/>
	<g
		fill="#fff"
		transform="matrix(0.979585, 0, 0, 1.018568, 2.940238, 1.635352)"
	>
		<path
			d="M45.1 45.5c-3.2 1.4-6.8 2.1-10.4 1.9c-3.6-.2-7.1-1.3-10.2-3.1c-3.1-1.8-5.8-4.4-7.6-7.5c-1.9-3.1-2.9-6.7-2.7-10.4l1.9.1c-.3 3.3.5 6.7 2.1 9.6c1.6 3 4 5.5 6.9 7.4c2.9 1.9 6.2 3.1 9.7 3.4c3.5.4 7.1-.1 10.3-1.4"
			style="fill: rgb(138, 73, 73)"
		/>
		<path
			d="M39 49.3c-3.6.3-7.2.2-10.7-.5c-3.5-.7-7-2-10-4.1c-3-2.1-5.5-4.8-7.2-8.1c-1.7-3.2-2.6-6.9-2.4-10.6l1.9.1c-.3 3.3.3 6.8 1.8 9.9c1.4 3.1 3.7 5.8 6.5 7.9c2.8 2.1 6.1 3.6 9.5 4.4c3.5 1 7.1 1.2 10.6 1"
			style="fill: rgb(138, 73, 73)"
		/>
		<path
			d="M28.7 50.8c-3.2-.4-6.4-1-9.4-2.1S13.4 46 11 43.8c-2.4-2.2-4.3-4.9-5.5-8c-1.2-3-1.8-6.3-1.8-9.5h1.9c-.1 3.1.2 6.1 1.2 9.1c1 2.9 2.6 5.6 4.9 7.8c2.2 2.2 4.9 3.9 7.8 5.2c2.9 1.1 6 1.9 9.2 2.4"
			style="fill: rgb(138, 73, 73)"
		/>
		<ellipse cx="29.3" cy="27" rx="2.2" ry="2.3" />
	</g>
	<path
		fill="#3e4347"
		d="M 33.111 29.137 C 33.111 30.053 32.426 30.766 31.642 30.766 C 30.858 30.766 30.173 30.053 30.173 29.137 C 30.173 28.22 30.858 27.507 31.642 27.507 C 32.426 27.405 33.111 28.118 33.111 29.137"
	/>
	<path
		d="M 28.997 30.766 C 29.095 30.766 33.014 33.618 34.287 30.155 C 34.973 28.322 28.997 30.766 28.997 30.766"
		style="fill: rgb(179, 147, 0)"
	/>
	<g
		fill="#3e4347"
		transform="matrix(0.979585, 0, 0, 1.018568, 2.940238, 1.635352)"
	>
		<path
			d="M29.3 28.5c.3.1.5.1.8.1c.3 0 .6.1.8.3c.5.4.6 1 .7 1.5c-.1-.3-.2-.5-.3-.7c-.1-.2-.3-.4-.5-.6c-.2-.1-.5-.2-.7-.3c-.2 0-.5-.1-.8-.3"
			style="fill: rgb(138, 73, 73)"
		/>
		<path
			d="M2.2 26.4c2.4-.4 4.8-.7 7.3-.7c2.5-.1 4.9.1 7.4.6c2.4.5 4.8 1.4 6.9 2.5c1.1.5 2.1 1.2 3.3 1.4c1.1.2 2.3-.3 3.4-.9c-.9.8-2.1 1.4-3.4 1.3c-1.3-.1-2.4-.7-3.5-1.2c-2.2-1-4.5-1.8-6.8-2.3c-2.3-.5-4.8-.7-7.2-.8c-2.5 0-5 0-7.4.1"
			style="fill: rgb(138, 73, 73)"
		/>
	</g>
	<path
		d="M 48.981 46.656 C 49.666 51.545 48.393 58.064 45.748 58.675 C 43.103 59.286 40.067 53.786 39.381 48.897 C 38.695 44.008 40.556 41.665 43.201 41.054 C 45.846 40.341 48.295 41.767 48.981 46.656"
		style="fill: rgb(179, 147, 0)"
	/>
</svg>
